<?xml version="1.0" standalone="no"?>
<!DOCTYPE svg PUBLIC "-//W3C//DTD SVG 20010904//EN"
 "http://www.w3.org/TR/2001/REC-SVG-20010904/DTD/svg10.dtd">
<svg version="1.0" xmlns="http://www.w3.org/2000/svg"
 width="516.000000pt" height="516.000000pt" viewBox="0 0 516.000000 516.000000"
 preserveAspectRatio="xMidYMid meet">
<metadata>
Created by potrace 1.11, written by Peter Selinger 2001-2013
</metadata>
<g transform="translate(0.000000,516.000000) scale(0.100000,-0.100000)"
fill="#000000" stroke="none">
<path d="M2160 4689 c-332 -27 -624 -98 -794 -193 -143 -80 -238 -203 -252
-326 -4 -34 4 -140 21 -280 32 -274 114 -902 118 -906 1 -1 35 13 75 32 258
123 677 201 1182 220 452 16 878 -68 1249 -247 68 -33 125 -59 126 -57 2 2 36
273 75 603 79 656 79 663 29 770 -13 28 -50 77 -84 110 -156 157 -458 242
-970 275 -185 12 -623 11 -775 -1z"/>
<path d="M904 2846 c-222 -59 -350 -174 -330 -298 29 -182 283 -390 627 -512
l93 -34 17 68 c21 81 57 139 108 174 186 129 863 240 1311 215 411 -23 889
-125 1006 -214 54 -41 92 -100 105 -163 6 -31 13 -63 15 -69 9 -33 361 129
489 224 102 76 170 152 208 231 39 83 36 160 -7 217 -41 54 -135 110 -245 148
l-96 32 -275 0 c-250 -1 -298 -4 -520 -33 -360 -46 -471 -54 -825 -54 -353 0
-487 8 -835 54 -195 25 -279 31 -495 34 -249 4 -264 3 -351 -20z"/>
<path d="M1838 2201 c-111 -44 -194 -125 -229 -221 -17 -47 -27 -61 -50 -69
-48 -17 -63 -99 -23 -132 12 -9 14 -62 14 -305 l0 -294 30 0 30 0 1 248 c0
235 1 246 17 222 39 -58 115 -128 166 -153 196 -96 426 -15 520 183 28 58 31
75 31 160 0 86 -3 101 -31 160 -38 79 -105 147 -182 186 -76 37 -220 45 -294
15z m255 -83 c63 -27 140 -112 162 -179 23 -68 17 -168 -13 -230 -91 -186
-338 -233 -485 -91 -21 20 -51 60 -65 87 -23 43 -27 62 -27 135 0 73 4 92 27
136 78 149 245 208 401 142z"/>
<path d="M1733 1076 c10 -142 50 -260 113 -335 65 -77 149 -82 322 -17 182 68
237 69 294 8 36 -39 48 -83 48 -183 l0 -89 63 0 64 0 6 95 c7 108 21 147 66
190 48 45 124 41 262 -15 82 -33 121 -43 184 -47 79 -5 81 -5 124 28 80 61
131 191 146 367 l8 82 -65 0 -65 0 -7 -56 c-11 -93 -52 -156 -115 -174 -25 -7
-54 -1 -154 32 -75 24 -149 42 -192 45 -66 5 -72 3 -113 -26 -52 -39 -93 -101
-116 -178 -26 -87 -28 -91 -34 -68 -25 113 -80 210 -142 251 -62 41 -131 33
-360 -45 -69 -23 -112 -17 -150 21 -31 31 -60 110 -60 165 l0 33 -66 0 -67 0
6 -84z"/>
</g>
</svg>
