<?xml version="1.0" encoding="UTF-8" standalone="no"?>
<svg
   xmlns:dc="http://purl.org/dc/elements/1.1/"
   xmlns:cc="http://creativecommons.org/ns#"
   xmlns:rdf="http://www.w3.org/1999/02/22-rdf-syntax-ns#"
   xmlns:svg="http://www.w3.org/2000/svg"
   xmlns="http://www.w3.org/2000/svg"
   style="enable-background:new"
   viewBox="0 0 516.04614 516.04614"
   height="516.04614"
   width="516.04614"
   version="1.1"
   id="svg4431">
  <metadata
     id="metadata4437">
    <rdf:RDF>
      <cc:Work
         rdf:about="">
        <dc:format>image/svg+xml</dc:format>
        <dc:type
           rdf:resource="http://purl.org/dc/dcmitype/StillImage" />
        <dc:title></dc:title>
      </cc:Work>
    </rdf:RDF>
  </metadata>
  <defs
     id="defs4435" />
  <g
     transform="translate(15.348509,15.348509)"
     style="display:inline"
     id="layer3">
    <circle
       r="254.83334"
       cy="242.67458"
       cx="242.67458"
       id="path4185"
       style="display:inline;opacity:1;fill:#ffffff;fill-opacity:1;stroke:none;stroke-width:6.37948322;stroke-miterlimit:4;stroke-dasharray:none;stroke-opacity:1;enable-background:new" />
  </g>
  <g
     transform="translate(-7.7127697,19.617674)"
     style="display:inline;opacity:1"
     id="layer2">
    <text
       id="text4177"
       y="295.245"
       x="299.80865"
       style="font-style:normal;font-weight:normal;font-size:40px;line-height:125%;font-family:sans-serif;letter-spacing:0px;word-spacing:0px;fill:#000000;fill-opacity:1;stroke:none;stroke-width:1px;stroke-linecap:butt;stroke-linejoin:miter;stroke-opacity:1"
       xml:space="preserve"><tspan
         y="295.245"
         x="299.80865"
         id="tspan4179" /></text>
  </g>
  <g
     transform="translate(-8.7609387,-8.7609387)"
     style="display:inline"
     id="layer5">
    <g
       transform="translate(0,-3.7554924)"
       id="g4436">
      <g
         transform="translate(1.048169,18.412587)"
         style="display:inline;opacity:1;enable-background:new"
         id="g4359">
        <circle
           transform="scale(-1,1)"
           r="34.61631"
           cy="326.19382"
           cx="-204.33105"
           id="path4585-6"
           style="display:inline;opacity:1;fill:none;fill-opacity:1;stroke:#000000;stroke-width:8;stroke-miterlimit:4;stroke-dasharray:none;stroke-opacity:1;enable-background:new" />
        <path
           id="path4587-6"
           d="m 165.75659,391.90096 0,-64.45557"
           style="display:inline;opacity:1;fill:none;fill-opacity:1;fill-rule:evenodd;stroke:#000000;stroke-width:7;stroke-linecap:butt;stroke-linejoin:miter;stroke-miterlimit:4;stroke-dasharray:none;stroke-opacity:1;enable-background:new" />
        <ellipse
           ry="3.4586556"
           rx="2.5199821"
           cy="326.19382"
           cx="165.75659"
           id="path4684-0"
           style="display:inline;opacity:1;fill:#000000;fill-opacity:1;stroke:#000000;stroke-width:8.89575577;stroke-miterlimit:4;stroke-dasharray:none;stroke-opacity:1;enable-background:new" />
        <text
           transform="matrix(0,-1.3198173,0.75768063,0,0,0)"
           id="text4181-3"
           y="421.38879"
           x="-375.05887"
           style="font-style:normal;font-weight:normal;font-size:71.35347748px;line-height:125%;font-family:sans-serif;letter-spacing:0px;word-spacing:0px;display:inline;opacity:1;fill:#000000;fill-opacity:1;stroke:none;stroke-width:1px;stroke-linecap:butt;stroke-linejoin:miter;stroke-opacity:1;enable-background:new"
           xml:space="preserve"><tspan
             style="font-style:normal;font-variant:normal;font-weight:normal;font-stretch:normal;font-size:321.09066772px;line-height:125%;font-family:'Apple Symbols';-inkscape-font-specification:'Apple Symbols, Normal';text-align:start;writing-mode:lr-tb;text-anchor:start"
             y="421.38879"
             x="-375.05887"
             id="tspan4183-0">{</tspan></text>
      </g>
      <path
         style="display:inline;fill:#000000;fill-opacity:1;fill-rule:evenodd;stroke:#000000;stroke-width:0.92986554px;stroke-linecap:butt;stroke-linejoin:miter;stroke-opacity:1;enable-background:new"
         d="m 134.20952,230.24375 c 0,0 -9.71127,-72.47714 -13.77113,-109.80839 -5.14086,-46.449737 67.83377,-62.374566 145.22297,-61.665798 74.89868,0.685964 150.77324,9.245439 145.22286,61.665798 -4.84748,41.39111 -13.77114,115.21767 -13.77114,115.21767 0,0 -51.09448,-32.39678 -127.07007,-31.37383 -98.91985,1.33187 -135.83349,25.96455 -135.83349,25.96455 z"
         id="path4273-4" />
      <g
         id="g4410"
         transform="translate(0,-9.9660255)">
        <path
           id="path4441-4-0-8"
           d="M 138.35738,337.81271 C 85.79263,321.29005 64.50342,294.64457 66.452651,278.84115 68.87044,259.23886 104.82175,252.02298 114.0696,251.7362 c 62.37608,-1.93427 72.14583,9.76927 151.99202,9.77814 l 0,29.99969 c -36.49858,0.22586 -82.02927,8.33239 -99.93544,15.06859 -10.18977,3.83334 -25.70909,6.83357 -27.7688,31.23009 z"
           style="display:inline;opacity:1;fill:#000000;fill-opacity:1;fill-rule:evenodd;stroke:#000000;stroke-width:1px;stroke-linecap:butt;stroke-linejoin:miter;stroke-opacity:1;enable-background:new" />
        <path
           id="path4441-4-3-7-5"
           d="m 394.76586,337.81271 c 52.56475,-16.52266 73.85397,-43.16814 71.90474,-58.97156 -2.41779,-19.60229 -38.3691,-26.81817 -47.61695,-27.10495 -62.37609,-1.93427 -72.14584,9.76927 -151.99203,9.77814 l 0,29.99969 c 36.49858,0.22586 82.02927,8.33239 99.93544,15.06859 10.18977,3.83334 25.70909,6.83357 27.7688,31.23009 z"
           style="display:inline;opacity:1;fill:#000000;fill-opacity:1;fill-rule:evenodd;stroke:#000000;stroke-width:1px;stroke-linecap:butt;stroke-linejoin:miter;stroke-opacity:1;enable-background:new" />
      </g>
    </g>
  </g>
</svg>
