<?xml version="1.0" encoding="UTF-8" standalone="no"?>
<svg
   xmlns:dc="http://purl.org/dc/elements/1.1/"
   xmlns:cc="http://creativecommons.org/ns#"
   xmlns:rdf="http://www.w3.org/1999/02/22-rdf-syntax-ns#"
   xmlns:svg="http://www.w3.org/2000/svg"
   xmlns="http://www.w3.org/2000/svg"
   style="enable-background:new"
   viewBox="0 0 516.04614 516.04614"
   height="516.04614"
   width="516.04614"
   version="1.1"
   id="svg4431">
  <metadata
     id="metadata4437">
    <rdf:RDF>
      <cc:Work
         rdf:about="">
        <dc:format>image/svg+xml</dc:format>
        <dc:type
           rdf:resource="http://purl.org/dc/dcmitype/StillImage" />
        <dc:title></dc:title>
      </cc:Work>
    </rdf:RDF>
  </metadata>
  <defs
     id="defs4435" />
  <g
     transform="translate(15.348509,15.348509)"
     style="display:inline"
     id="layer3">
    <circle
       r="254.83334"
       cy="242.67458"
       cx="242.67458"
       id="path4185"
       style="display:inline;opacity:1;fill:#ffffff;fill-opacity:1;stroke:none;stroke-width:6.37948322;stroke-miterlimit:4;stroke-dasharray:none;stroke-opacity:1;enable-background:new" />
  </g>
  <g
     transform="translate(-7.7127697,19.617674)"
     style="display:inline;opacity:1"
     id="layer2">
    <text
       id="text4177"
       y="295.245"
       x="299.80865"
       style="font-style:normal;font-weight:normal;font-size:40px;line-height:125%;font-family:sans-serif;letter-spacing:0px;word-spacing:0px;fill:#000000;fill-opacity:1;stroke:none;stroke-width:1px;stroke-linecap:butt;stroke-linejoin:miter;stroke-opacity:1"
       xml:space="preserve"><tspan
         y="295.245"
         x="299.80865"
         id="tspan4179" /></text>
  </g>
  <g
     transform="translate(-8.7609387,-8.7609387)"
     style="display:inline"
     id="layer5">
    <path
       id="path4587-6"
       d="m 166.80476,406.55806 0,-64.45558"
       style="display:inline;opacity:1;fill:none;fill-opacity:1;fill-rule:evenodd;stroke:#000000;stroke-width:7;stroke-linecap:butt;stroke-linejoin:miter;stroke-miterlimit:4;stroke-dasharray:none;stroke-opacity:1;enable-background:new" />
    <ellipse
       ry="3.4586556"
       rx="2.5199821"
       cy="340.85092"
       cx="166.80476"
       id="path4684-0"
       style="display:inline;opacity:1;fill:#000000;fill-opacity:1;stroke:#000000;stroke-width:8.89575577;stroke-miterlimit:4;stroke-dasharray:none;stroke-opacity:1;enable-background:new" />
    <g
       id="g4426">
      <g
         id="g4415">
        <circle
           transform="scale(-1,1)"
           r="34.61631"
           cy="340.85092"
           cx="-205.37923"
           id="path4585-6"
           style="display:inline;opacity:1;fill:none;fill-opacity:1;stroke:#000000;stroke-width:8;stroke-miterlimit:4;stroke-dasharray:none;stroke-opacity:1;enable-background:new" />
        <g
           id="text4181-3"
           style="font-style:normal;font-weight:normal;font-size:71.35347748px;line-height:125%;font-family:sans-serif;letter-spacing:0px;word-spacing:0px;display:inline;opacity:1;fill:#000000;fill-opacity:1;stroke:none;stroke-width:1px;stroke-linecap:butt;stroke-linejoin:miter;stroke-opacity:1;enable-background:new"
           transform="matrix(0,-1.3198173,0.75768063,0,0,0)">
          <path
             id="path4413"
             style="font-style:normal;font-variant:normal;font-weight:normal;font-stretch:normal;font-size:321.09066772px;line-height:125%;font-family:'Apple Symbols';-inkscape-font-specification:'Apple Symbols, Normal';text-align:start;writing-mode:lr-tb;text-anchor:start"
             d="m -362.96046,343.28343 5.95774,0 q 10.81799,0 14.42399,-5.64417 3.76278,-5.64417 3.76278,-13.32652 0,-8.9366 -2.35173,-19.12747 l -2.66531,-11.44512 q -2.6653,-11.28835 -2.6653,-21.32243 0,-14.73756 10.34765,-23.67417 10.50443,-9.09339 25.08521,-9.09339 l 1.7246,0 0,17.40287 -2.19495,0 q -6.11452,0 -11.13156,4.86026 -4.86026,4.86026 -4.86026,14.58077 0,3.29244 0.62713,5.64418 l 1.25426,5.3306 2.35174,13.4833 q 2.6653,14.89435 2.6653,20.22495 0,8.77983 -5.48739,17.71643 -5.33061,8.77982 -17.71643,13.01295 12.38582,4.38991 17.71643,13.32652 5.48739,8.77982 5.48739,17.55965 0,5.17382 -2.6653,20.22494 l -2.35174,13.4833 -1.25426,5.33061 q -0.62713,2.6653 -0.62713,5.64417 0,9.56374 4.86026,14.424 5.01704,5.01704 11.13156,5.01704 l 2.19495,0 0,17.24608 -1.7246,0 q -14.58078,0 -25.08521,-8.93661 -10.34765,-8.9366 -10.34765,-23.83094 0,-10.03409 2.6653,-21.16565 l 2.66531,-11.44512 q 2.35173,-10.34765 2.35173,-19.28426 0,-7.52556 -3.76278,-13.16973 -3.606,-5.80096 -14.42399,-5.80096 l -5.95774,0 0,-17.24608 z" />
        </g>
      </g>
      <g
         id="g4420">
        <path
           id="path4273-4"
           d="m 134.20952,226.48826 c 0,0 -9.71127,-72.47714 -13.77113,-109.80839 -5.14086,-46.449739 67.83377,-62.374568 145.22297,-61.6658 74.89868,0.685964 150.77324,9.245439 145.22286,61.6658 -4.84748,41.39111 -13.77114,115.21767 -13.77114,115.21767 0,0 -51.09448,-32.39678 -127.07007,-31.37383 -98.91985,1.33187 -135.83349,25.96455 -135.83349,25.96455 z"
           style="display:inline;fill:#000000;fill-opacity:1;fill-rule:evenodd;stroke:#000000;stroke-width:0.92986554px;stroke-linecap:butt;stroke-linejoin:miter;stroke-opacity:1;enable-background:new" />
        <g
           transform="translate(0,-13.721518)"
           id="g4410">
          <path
             style="display:inline;opacity:1;fill:#000000;fill-opacity:1;fill-rule:evenodd;stroke:#000000;stroke-width:1px;stroke-linecap:butt;stroke-linejoin:miter;stroke-opacity:1;enable-background:new"
             d="M 138.35738,337.81271 C 85.79263,321.29005 64.50342,294.64457 66.452651,278.84115 68.87044,259.23886 104.82175,252.02298 114.0696,251.7362 c 62.37608,-1.93427 72.14583,9.76927 151.99202,9.77814 l 0,29.99969 c -36.49858,0.22586 -82.02927,8.33239 -99.93544,15.06859 -10.18977,3.83334 -25.70909,6.83357 -27.7688,31.23009 z"
             id="path4441-4-0-8" />
          <path
             style="display:inline;opacity:1;fill:#000000;fill-opacity:1;fill-rule:evenodd;stroke:#000000;stroke-width:1px;stroke-linecap:butt;stroke-linejoin:miter;stroke-opacity:1;enable-background:new"
             d="m 394.76586,337.81271 c 52.56475,-16.52266 73.85397,-43.16814 71.90474,-58.97156 -2.41779,-19.60229 -38.3691,-26.81817 -47.61695,-27.10495 -62.37609,-1.93427 -72.14584,9.76927 -151.99203,9.77814 l 0,29.99969 c 36.49858,0.22586 82.02927,8.33239 99.93544,15.06859 10.18977,3.83334 25.70909,6.83357 27.7688,31.23009 z"
             id="path4441-4-3-7-5" />
        </g>
      </g>
    </g>
  </g>
</svg>
