<?xml version="1.0" encoding="UTF-8" standalone="no"?>
<svg
   xmlns:dc="http://purl.org/dc/elements/1.1/"
   xmlns:cc="http://creativecommons.org/ns#"
   xmlns:rdf="http://www.w3.org/1999/02/22-rdf-syntax-ns#"
   xmlns:svg="http://www.w3.org/2000/svg"
   xmlns="http://www.w3.org/2000/svg"
   style="enable-background:new"
   viewBox="0 0 485.34918 485.34918"
   height="485.34918"
   width="485.34918"
   version="1.1"
   id="svg4431">
  <metadata
     id="metadata4437">
    <rdf:RDF>
      <cc:Work
         rdf:about="">
        <dc:format>image/svg+xml</dc:format>
        <dc:type
           rdf:resource="http://purl.org/dc/dcmitype/StillImage" />
        <dc:title></dc:title>
      </cc:Work>
    </rdf:RDF>
  </metadata>
  <defs
     id="defs4435" />
  <g
     transform="translate(-23.061279,4.269165)"
     style="display:inline;opacity:1"
     id="layer2">
    <circle
       r="239.67459"
       cy="238.40543"
       cx="265.73587"
       id="path4185"
       style="opacity:1;fill:#ffffff;fill-opacity:1;stroke:#000000;stroke-width:6;stroke-miterlimit:4;stroke-dasharray:none;stroke-opacity:1" />
    <path
       id="path4443-0"
       d="m 128.84193,190.87608 c 0,0 1.08172,-69.51224 9.73488,-93.346091 20.58721,-41.779953 78.90309,-60.696404 127.15906,-60.789357 48.8249,-0.09405 111.84294,16.668417 131.58399,60.789357 6.90874,23.352681 5.30994,93.346091 5.30994,93.346091 -26.20652,9.37958 -90.38777,15.30485 -136.58104,14.47734 -46.19328,0.51924 -111.00031,-5.09776 -137.20683,-14.47734 z"
       style="fill:#000000;fill-opacity:1;fill-rule:evenodd;stroke:#000000;stroke-width:1px;stroke-linecap:butt;stroke-linejoin:miter;stroke-opacity:1" />
    <circle
       transform="scale(-1,1)"
       r="34.61631"
       cy="300.06256"
       cx="-206.06496"
       id="path4585"
       style="fill:none;fill-opacity:1;stroke:#000000;stroke-width:8;stroke-miterlimit:4;stroke-dasharray:none;stroke-opacity:1" />
    <path
       id="path4587"
       d="m 167.49049,365.76971 0,-64.45557"
       style="fill:none;fill-opacity:1;fill-rule:evenodd;stroke:#000000;stroke-width:7;stroke-linecap:butt;stroke-linejoin:miter;stroke-miterlimit:4;stroke-dasharray:none;stroke-opacity:1" />
    <path
       id="path4441"
       d="m 393.71886,283.13429 c 51.23728,-28.91252 75.07407,-53.23407 74.55972,-69.14894 -0.64781,-20.04479 -26.7123,-22.34275 -35.66959,-20.02503 -57.50866,14.88053 -86.52693,20.38914 -166.37312,20.39801 l 0,27.78722 c 28.97616,0.22586 97.45493,0.10871 112.10405,12.41362 9.30478,7.81579 11.54925,9.04604 15.37894,28.57512 z"
       style="fill:#000000;fill-opacity:1;fill-rule:evenodd;stroke:#000000;stroke-width:1px;stroke-linecap:butt;stroke-linejoin:miter;stroke-opacity:1" />
    <ellipse
       ry="3.4586556"
       rx="2.5199821"
       cy="300.06256"
       cx="167.49049"
       id="path4684"
       style="fill:#000000;fill-opacity:1;stroke:#000000;stroke-width:8.89575577;stroke-miterlimit:4;stroke-dasharray:none;stroke-opacity:1" />
    <text
       id="text4177"
       y="295.245"
       x="299.80865"
       style="font-style:normal;font-weight:normal;font-size:40px;line-height:125%;font-family:sans-serif;letter-spacing:0px;word-spacing:0px;fill:#000000;fill-opacity:1;stroke:none;stroke-width:1px;stroke-linecap:butt;stroke-linejoin:miter;stroke-opacity:1"
       xml:space="preserve"><tspan
         y="295.245"
         x="299.80865"
         id="tspan4179" /></text>
    <text
       transform="matrix(0,-1.3198173,0.75768063,0,0,0)"
       id="text4181"
       y="421.58853"
       x="-355.25983"
       style="font-style:normal;font-weight:normal;font-size:71.35347748px;line-height:125%;font-family:sans-serif;letter-spacing:0px;word-spacing:0px;fill:#000000;fill-opacity:1;stroke:none;stroke-width:1px;stroke-linecap:butt;stroke-linejoin:miter;stroke-opacity:1"
       xml:space="preserve"><tspan
         style="font-style:normal;font-variant:normal;font-weight:normal;font-stretch:normal;font-size:321.09066772px;line-height:125%;font-family:'Apple Symbols';-inkscape-font-specification:'Apple Symbols, Normal';text-align:start;writing-mode:lr-tb;text-anchor:start"
         y="421.58853"
         x="-355.25983"
         id="tspan4183">{</tspan></text>
    <path
       id="path4441-4"
       d="M 137.75288,283.13429 C 86.515608,254.22177 62.678818,229.90022 63.193168,213.98535 c 0.64781,-20.04479 26.7123,-22.34275 35.66959,-20.02503 57.508652,14.88053 86.526922,20.38914 166.373112,20.39801 l 0,27.78722 c -28.97616,0.22586 -97.45493,0.10871 -112.10405,12.41362 -9.30478,7.81579 -11.54925,9.04604 -15.37894,28.57512 z"
       style="display:inline;opacity:1;fill:#000000;fill-opacity:1;fill-rule:evenodd;stroke:#000000;stroke-width:1px;stroke-linecap:butt;stroke-linejoin:miter;stroke-opacity:1;enable-background:new" />
  </g>
</svg>
