<?xml version="1.0" encoding="UTF-8" standalone="no"?>
<svg
   xmlns:dc="http://purl.org/dc/elements/1.1/"
   xmlns:cc="http://creativecommons.org/ns#"
   xmlns:rdf="http://www.w3.org/1999/02/22-rdf-syntax-ns#"
   xmlns:svg="http://www.w3.org/2000/svg"
   xmlns="http://www.w3.org/2000/svg"
   xmlns:sodipodi="http://sodipodi.sourceforge.net/DTD/sodipodi-0.dtd"
   xmlns:inkscape="http://www.inkscape.org/namespaces/inkscape"
   style="enable-background:new"
   viewBox="0 0 355.84141 85.272244"
   height="24.065725mm"
   width="100.42635mm"
   version="1.1"
   id="svg4431"
   inkscape:version="0.91 r13725"
   sodipodi:docname="dapperdox_logo_sticker_full.svg">
  <sodipodi:namedview
     pagecolor="#ffffff"
     bordercolor="#666666"
     borderopacity="1"
     objecttolerance="10"
     gridtolerance="10"
     guidetolerance="10"
     inkscape:pageopacity="0"
     inkscape:pageshadow="2"
     inkscape:window-width="1620"
     inkscape:window-height="911"
     id="namedview4157"
     showgrid="false"
     inkscape:zoom="1.9621829"
     inkscape:cx="158.95027"
     inkscape:cy="94.004988"
     inkscape:window-x="0"
     inkscape:window-y="0"
     inkscape:window-maximized="0"
     inkscape:current-layer="svg4431"
     fit-margin-top="0.2"
     fit-margin-left="0.2"
     fit-margin-right="0.2"
     fit-margin-bottom="0.4"
     units="mm"
     inkscape:document-units="mm" />
  <metadata
     id="metadata4437">
    <rdf:RDF>
      <cc:Work
         rdf:about="">
        <dc:format>image/svg+xml</dc:format>
        <dc:type
           rdf:resource="http://purl.org/dc/dcmitype/StillImage" />
        <dc:title></dc:title>
      </cc:Work>
    </rdf:RDF>
  </metadata>
  <defs
     id="defs4435" />
  <path
     style="opacity:1;fill:none;fill-opacity:1;stroke:#ff03ff;stroke-width:0.32500002;stroke-miterlimit:4;stroke-dasharray:none;stroke-opacity:1"
     d="M 42.282488,0.87115385 A 41.410581,41.410581 0 0 0 0.87116148,42.282482 41.410581,41.410581 0 0 0 42.282488,83.692426 a 41.410581,41.410581 0 0 0 25.37274,-8.7091 l 269.722822,0 c 9.74578,0 17.5922,-8.43158 17.5922,-18.904956 l 0,-19.601019 c 0,-10.473378 -7.84642,-18.90496 -17.5922,-18.90496 l -261.920002,0 A 41.410581,41.410581 0 0 0 42.282488,0.87115385 Z"
     id="path4209"
     inkscape:connector-curvature="0" />
  <g
     transform="translate(-87.840624,-263.15162)"
     style="display:inline;opacity:1"
     id="layer2">
    <text
       id="text4177"
       y="295.245"
       x="299.80865"
       style="font-style:italic;font-variant:normal;font-weight:normal;font-stretch:normal;font-size:40px;line-height:125%;font-family:Muli;-inkscape-font-specification:'Muli Italic';letter-spacing:0px;word-spacing:0px;fill:#000000;fill-opacity:1;stroke:none;stroke-width:1px;stroke-linecap:butt;stroke-linejoin:miter;stroke-opacity:1"
       xml:space="preserve"
       sodipodi:linespacing="125%"><tspan
         y="295.245"
         x="299.80865"
         id="tspan4179"
         style="font-style:italic;font-variant:normal;font-weight:normal;font-stretch:normal;font-family:Muli;-inkscape-font-specification:'Muli Italic'" /></text>
  </g>
  <g
     id="g4609">
    <circle
       r="37.414822"
       cy="42.282036"
       cx="42.282024"
       id="path4185"
       style="display:inline;opacity:1;fill:#ffffff;fill-opacity:1;stroke:#000000;stroke-width:0.9366405;stroke-miterlimit:4;stroke-dasharray:none;stroke-opacity:1;enable-background:new" />
    <g
       id="g4597">
      <g
         id="g4565">
        <path
           id="path4587-6"
           d="m 27.602996,62.803766 0,-9.463417"
           style="display:inline;opacity:1;fill:none;fill-opacity:1;fill-rule:evenodd;stroke:#000000;stroke-width:1.02774525;stroke-linecap:butt;stroke-linejoin:miter;stroke-miterlimit:4;stroke-dasharray:none;stroke-opacity:1;enable-background:new"
           inkscape:connector-curvature="0" />
        <ellipse
           ry="0.50780243"
           rx="0.36998567"
           cy="53.156593"
           cx="27.602997"
           id="path4684-0"
           style="display:inline;opacity:1;fill:#000000;fill-opacity:1;stroke:#000000;stroke-width:1.30608153;stroke-miterlimit:4;stroke-dasharray:none;stroke-opacity:1;enable-background:new" />
        <circle
           transform="scale(-1,1)"
           r="5.0823927"
           cy="53.156593"
           cx="-33.266529"
           id="path4585-6"
           style="display:inline;opacity:1;fill:none;fill-opacity:1;stroke:#000000;stroke-width:1.17456603;stroke-miterlimit:4;stroke-dasharray:none;stroke-opacity:1;enable-background:new" />
        <path
           d="m 29.771484,63.054688 0,0.335937 c 0,1.883609 0.337334,3.502366 1.011719,4.859375 0.662758,1.336755 1.541796,2.005859 2.634766,2.005859 0.744149,0 1.533925,-0.171309 2.371093,-0.515625 L 37.0625,69.222656 c 0.755777,-0.303806 1.464196,-0.455078 2.126953,-0.455078 0.56974,0 1.063838,0.242423 1.482422,0.728516 0.418583,0.465838 0.628906,1.397406 0.628906,2.794922 l 0,1.154296 1.917969,0 0,-1.154296 c 0,-1.397516 0.216272,-2.329084 0.646484,-2.794922 0.418584,-0.486093 0.906733,-0.728516 1.464844,-0.728516 0.662759,0 1.377127,0.151272 2.144531,0.455078 l 1.273438,0.517578 c 0.825541,0.344316 1.609365,0.515625 2.353515,0.515625 1.104596,0 1.989586,-0.669104 2.652344,-2.005859 0.662758,-1.357009 0.994141,-2.975766 0.994141,-4.859375 l 0,-0.335937 -1.919922,0 0,0.425781 c 0,0.7899 -0.184566,1.51008 -0.556641,2.158203 -0.360447,0.627869 -0.896201,0.941406 -1.605468,0.941406 -0.22092,0 -0.429289,-0.04008 -0.626954,-0.121094 l -0.59375,-0.24414 -1.5,-0.455078 c -1.116223,-0.344316 -1.866297,-0.517578 -2.25,-0.517578 -0.651131,-10e-7 -1.301995,0.355567 -1.953124,1.064453 -0.662759,0.688631 -1.156857,1.833539 -1.482422,3.433593 -0.313938,-1.600054 -0.796136,-2.744962 -1.447266,-3.433593 -0.662758,-0.708886 -1.319572,-1.064453 -1.970703,-1.064453 -0.395329,-10e-7 -1.145403,0.173262 -2.25,0.517578 l -1.5,0.455078 -0.59375,0.24414 c -0.17441,0.08102 -0.382779,0.121094 -0.626953,0.121094 -0.720894,0 -1.262599,-0.313537 -1.623047,-0.941406 -0.360447,-0.648123 -0.539063,-1.368303 -0.539063,-2.158203 l 0,-0.425781 -1.9375,0 z"
           id="path4563"
           style="font-style:normal;font-variant:normal;font-weight:normal;font-stretch:normal;font-size:321.09066772px;line-height:125%;font-family:'Apple Symbols';-inkscape-font-specification:'Apple Symbols, Normal';text-align:start;letter-spacing:0px;word-spacing:0px;writing-mode:lr-tb;text-anchor:start;fill:#000000;fill-opacity:1;stroke:none;stroke-width:1px;stroke-linecap:butt;stroke-linejoin:miter;stroke-opacity:1"
           inkscape:original="M 29.771484 63.054688 L 29.771484 63.390625 C 29.771484 65.274234 30.108818 66.892991 30.783203 68.25 C 31.445961 69.586755 32.324999 70.255859 33.417969 70.255859 C 34.162118 70.255859 34.951894 70.08455 35.789062 69.740234 L 37.0625 69.222656 C 37.818277 68.91885 38.526696 68.767578 39.189453 68.767578 C 39.759193 68.767578 40.253291 69.010001 40.671875 69.496094 C 41.090458 69.961932 41.300781 70.8935 41.300781 72.291016 L 41.300781 73.445312 L 43.21875 73.445312 L 43.21875 72.291016 C 43.21875 70.8935 43.435022 69.961932 43.865234 69.496094 C 44.283818 69.010001 44.771967 68.767578 45.330078 68.767578 C 45.992837 68.767578 46.707205 68.91885 47.474609 69.222656 L 48.748047 69.740234 C 49.573588 70.08455 50.357412 70.255859 51.101562 70.255859 C 52.206158 70.255859 53.091148 69.586755 53.753906 68.25 C 54.416664 66.892991 54.748047 65.274234 54.748047 63.390625 L 54.748047 63.054688 L 52.828125 63.054688 L 52.828125 63.480469 C 52.828125 64.270369 52.643559 64.990549 52.271484 65.638672 C 51.911037 66.266541 51.375283 66.580078 50.666016 66.580078 C 50.445096 66.580078 50.236727 66.54 50.039062 66.458984 L 49.445312 66.214844 L 47.945312 65.759766 C 46.829089 65.41545 46.079015 65.242188 45.695312 65.242188 C 45.044181 65.242187 44.393317 65.597755 43.742188 66.306641 C 43.079429 66.995272 42.585331 68.14018 42.259766 69.740234 C 41.945828 68.14018 41.46363 66.995272 40.8125 66.306641 C 40.149742 65.597755 39.492928 65.242188 38.841797 65.242188 C 38.446468 65.242187 37.696394 65.41545 36.591797 65.759766 L 35.091797 66.214844 L 34.498047 66.458984 C 34.323637 66.54 34.115268 66.580078 33.871094 66.580078 C 33.1502 66.580078 32.608495 66.266541 32.248047 65.638672 C 31.8876 64.990549 31.708984 64.270369 31.708984 63.480469 L 31.708984 63.054688 L 29.771484 63.054688 z "
           inkscape:radius="0"
           sodipodi:type="inkscape:offset" />
      </g>
      <g
         id="g4591">
        <path
           id="path4273-4"
           d="m 22.817339,36.365783 c 0,0 -1.425816,-10.641148 -2.021888,-16.12215 -0.754785,-6.819786 9.959405,-9.157881 21.321746,-9.053819 10.99668,0.100713 22.13664,1.357422 21.321729,9.053819 -0.711711,6.077073 -2.021889,16.916344 -2.021889,16.916344 0,0 -7.50173,-4.756519 -18.656523,-4.606329 -14.523487,0.195546 -19.943175,3.812135 -19.943175,3.812135 z"
           style="display:inline;fill:#000000;fill-opacity:1;fill-rule:evenodd;stroke:#000000;stroke-width:0.13652356px;stroke-linecap:butt;stroke-linejoin:miter;stroke-opacity:1;enable-background:new"
           inkscape:connector-curvature="0" />
        <g
           id="g4587">
          <path
             style="display:inline;opacity:1;fill:#000000;fill-opacity:1;fill-rule:evenodd;stroke:#000000;stroke-width:0.1469788px;stroke-linecap:butt;stroke-linejoin:miter;stroke-opacity:1;enable-background:new"
             d="M 23.449325,50.695833 C 15.715001,48.269997 12.582529,44.35794 12.869337,42.037701 c 0.35575,-2.877984 5.645589,-3.937411 7.006309,-3.979515 9.177952,-0.283987 10.615463,1.434312 22.363949,1.435614 l 0,4.404517 c -5.370364,0.03316 -12.069703,1.223352 -14.704398,2.212353 -1.499312,0.562806 -3.782809,1.003296 -4.085872,4.585163 z"
             id="path4441-4-0-8"
             inkscape:connector-curvature="0" />
          <path
             style="display:inline;opacity:1;fill:#000000;fill-opacity:1;fill-rule:evenodd;stroke:#000000;stroke-width:0.14682075px;stroke-linecap:butt;stroke-linejoin:miter;stroke-opacity:1;enable-background:new"
             d="M 61.072416,50.695918 C 68.790012,48.270049 71.915711,44.35794 71.629524,42.03767 71.274542,39.159647 65.996144,38.100206 64.638368,38.058101 55.480263,37.77411 54.045861,39.492432 42.322784,39.493734 l 0,4.404577 c 5.358749,0.03316 12.043599,1.223368 14.672596,2.212382 1.49607,0.562814 3.774628,1.00331 4.077036,4.585225 z"
             id="path4441-4-3-7-5"
             inkscape:connector-curvature="0" />
        </g>
      </g>
    </g>
  </g>
  <g
     style="font-style:italic;font-variant:normal;font-weight:normal;font-stretch:normal;font-size:11.25px;line-height:125%;font-family:Muli;-inkscape-font-specification:'Muli Italic';letter-spacing:0px;word-spacing:0px;fill:#000000;fill-opacity:1;stroke:none;stroke-width:1px;stroke-linecap:butt;stroke-linejoin:miter;stroke-opacity:1"
     id="text4176"
     transform="matrix(0.71276432,0,0,0.71276432,0.75561548,0.75561585)">
    <path
       d="m 125.07507,32.080894 10.7666,0 q 4.44336,0 8.51075,0.512696 4.06738,0.512695 7.55371,1.674804 3.52051,1.16211 6.35742,3.076172 2.87109,1.879883 4.8877,4.682618 2.0166,2.768554 3.11035,6.52832 1.09375,3.725586 1.09375,8.544922 0,5.673828 -1.91407,10.253906 -1.87988,4.545898 -5.50293,7.792969 -3.58886,3.21289 -8.81835,4.956054 -5.19532,1.743164 -11.792,1.743164 l -14.25293,0 0,-49.765625 z m 5.87891,44.707032 8.9209,0 q 5.43457,0 9.43359,-1.435547 3.99903,-1.469727 6.63086,-4.067383 2.63184,-2.597656 3.89649,-6.186523 1.29882,-3.623047 1.29882,-7.895508 0,-5.605469 -1.57226,-9.433594 -1.57227,-3.862305 -4.68262,-6.220703 -3.07617,-2.358399 -7.69043,-3.383789 -4.58008,-1.025391 -10.62988,-1.025391 l -5.60547,0 0,39.648438 z"
       style="font-size:70px;letter-spacing:-1px"
       id="path4336"
       inkscape:connector-curvature="0" />
    <path
       d="m 190.28113,45.923668 q 2.15332,0 3.93066,0.410156 1.77735,0.375977 3.28125,1.09375 1.50391,0.717774 2.76856,1.777344 1.26465,1.05957 2.3584,2.392578 l 0.20507,-4.819336 5.57129,0 -0.13672,8.647461 0,26.420898 -5.63964,0 0.0684,-4.921875 q -0.82031,1.09375 -2.08496,2.153321 -1.23047,1.02539 -2.80273,1.811523 -1.57227,0.786133 -3.48633,1.264649 -1.87988,0.478515 -3.96484,0.478515 -2.93946,0 -5.33203,-0.786133 -2.39258,-0.751953 -4.27246,-2.08496 -1.87989,-1.367188 -3.28125,-3.178711 -1.36719,-1.811524 -2.25586,-3.896485 -0.88868,-2.084961 -1.33301,-4.30664 -0.44434,-2.25586 -0.44434,-4.44336 0,-3.383789 1.02539,-6.630859 1.05957,-3.24707 3.14453,-5.776367 2.11914,-2.529297 5.26368,-4.067383 3.17871,-1.538086 7.41699,-1.538086 z m 0.64941,32.197266 q 2.39258,0 4.47754,-0.957032 2.11914,-0.991211 3.69141,-2.871093 1.60644,-1.914063 2.52929,-4.716797 0.95704,-2.836914 0.99122,-6.528321 0,-2.768554 -0.8545,-5.058593 -0.82031,-2.290039 -2.3584,-3.964844 -1.53808,-1.674805 -3.75976,-2.597656 -2.1875,-0.922852 -4.92188,-0.922852 -2.08496,0 -3.75976,0.581055 -1.67481,0.546875 -2.97363,1.538086 -1.29883,0.991211 -2.25586,2.324218 -0.95704,1.333008 -1.57227,2.871094 -0.61523,1.503906 -0.92285,3.144531 -0.27344,1.640625 -0.27344,3.247071 0,1.572265 0.20508,3.24707 0.23926,1.640625 0.75195,3.178711 0.5127,1.538086 1.40137,2.905273 0.88867,1.367188 2.1875,2.392579 1.33301,0.99121 3.14453,1.606445 1.8457,0.581055 4.27246,0.581055 z"
       style="font-size:70px;letter-spacing:-1px"
       id="path4338"
       inkscape:connector-curvature="0" />
    <path
       d="m 222.94812,96.441246 -5.60547,0 0,-40.50293 q 0,-0.717773 -0.0342,-1.743164 0,-1.05957 -0.0342,-2.290039 -0.0342,-1.230469 -0.10254,-2.529297 -0.0342,-1.333007 -0.10254,-2.597656 l 5.70801,0 0.1709,4.990234 q 2.15332,-2.905273 5.16113,-4.375 3.042,-1.469726 6.63086,-1.469726 4.13574,0 7.14356,1.435547 3.04199,1.435547 5.02441,3.896484 1.98242,2.426758 2.93945,5.673828 0.99122,3.247071 0.99122,6.904297 0,3.691406 -1.0254,7.109375 -0.99121,3.383789 -3.00781,5.981445 -1.98242,2.597657 -5.02441,4.169922 -3.00781,1.538086 -7.04102,1.538086 -7.38281,0 -11.79199,-5.40039 l 0,19.208984 z m 0,-31.479492 q 0,2.836914 0.71777,5.263672 0.71778,2.392578 2.08496,4.169922 1.40137,1.743164 3.45215,2.734375 2.05078,0.991211 4.7168,0.991211 2.87109,0 4.92187,-1.16211 2.08497,-1.162109 3.38379,-3.110351 1.33301,-1.948243 1.94825,-4.477539 0.64941,-2.563477 0.64941,-5.332032 0,-2.597656 -0.54687,-5.024414 -0.54688,-2.460937 -1.81153,-4.34082 -1.23047,-1.914063 -3.28125,-3.041992 -2.05078,-1.12793 -5.05859,-1.12793 -3.14453,0 -5.29785,1.196289 -2.11914,1.196289 -3.45215,3.212891 -1.29883,1.982422 -1.87988,4.614258 -0.54688,2.597656 -0.54688,5.43457 z"
       style="font-size:70px;letter-spacing:-1px"
       id="path4340"
       inkscape:connector-curvature="0" />
    <path
       d="m 264.33093,96.441246 -5.60547,0 0,-40.50293 q 0,-0.717773 -0.0342,-1.743164 0,-1.05957 -0.0342,-2.290039 -0.0342,-1.230469 -0.10253,-2.529297 -0.0342,-1.333007 -0.10254,-2.597656 l 5.708,0 0.1709,4.990234 q 2.15332,-2.905273 5.16114,-4.375 3.04199,-1.469726 6.63085,-1.469726 4.13575,0 7.14356,1.435547 3.04199,1.435547 5.02441,3.896484 1.98243,2.426758 2.93946,5.673828 0.99121,3.247071 0.99121,6.904297 0,3.691406 -1.02539,7.109375 -0.99121,3.383789 -3.00782,5.981445 -1.98242,2.597657 -5.02441,4.169922 -3.00781,1.538086 -7.04102,1.538086 -7.38281,0 -11.79199,-5.40039 l 0,19.208984 z m 0,-31.479492 q 0,2.836914 0.71778,5.263672 0.71777,2.392578 2.08496,4.169922 1.40136,1.743164 3.45215,2.734375 2.05078,0.991211 4.71679,0.991211 2.8711,0 4.92188,-1.16211 2.08496,-1.162109 3.38379,-3.110351 1.333,-1.948243 1.94824,-4.477539 0.64941,-2.563477 0.64941,-5.332032 0,-2.597656 -0.54687,-5.024414 -0.54688,-2.460937 -1.81153,-4.34082 -1.23046,-1.914063 -3.28125,-3.041992 -2.05078,-1.12793 -5.05859,-1.12793 -3.14453,0 -5.29785,1.196289 -2.11914,1.196289 -3.45215,3.212891 -1.29883,1.982422 -1.87988,4.614258 -0.54688,2.597656 -0.54688,5.43457 z"
       style="font-size:70px;letter-spacing:-1px"
       id="path4342"
       inkscape:connector-curvature="0" />
    <path
       d="m 325.6405,61.03109 -0.0342,-0.478516 q -0.1709,-2.22168 -0.88867,-4.067383 -0.68359,-1.845703 -1.91406,-3.178711 -1.23047,-1.333007 -3.00781,-2.050781 -1.74317,-0.751953 -3.96485,-0.751953 -2.39258,0 -4.30664,0.854492 -1.91406,0.820313 -3.31543,2.25586 -1.36719,1.435546 -2.22168,3.349609 -0.85449,1.914062 -1.16211,4.067383 l 20.81543,0 z m 4.5459,16.884765 q -2.83691,2.460938 -6.28906,3.588868 -3.45215,1.127929 -7.82715,1.127929 -4.13574,0 -7.38281,-1.333008 -3.24707,-1.367187 -5.50293,-3.759765 -2.22168,-2.426758 -3.41797,-5.776367 -1.16211,-3.34961 -1.16211,-7.348633 0,-3.793945 1.16211,-7.143555 1.16211,-3.349609 3.38379,-5.878906 2.22168,-2.529297 5.40039,-3.999024 3.21289,-1.469726 7.31445,-1.469726 4.03321,0 7.00684,1.333008 2.97363,1.298828 4.88769,3.623047 1.91407,2.290039 2.83692,5.46875 0.95703,3.178711 0.95703,6.904296 0,0.375977 -0.0342,0.888672 0,0.478516 -0.0342,0.888672 l -26.89941,0 0.10253,1.538086 q 0.20508,2.563477 1.0254,4.682617 0.85449,2.119141 2.32421,3.657227 1.46973,1.538086 3.55469,2.392578 2.11914,0.820313 4.81934,0.820313 3.62304,0 6.63086,-1.264649 3.00781,-1.264648 5.40039,-3.623047 l 1.74316,4.682617 z"
       style="font-size:70px;letter-spacing:-1px"
       id="path4344"
       inkscape:connector-curvature="0" />
    <path
       d="m 345.07996,81.846519 -5.63965,0 0,-26.625976 q 0,-2.15332 -0.0684,-4.306641 -0.0684,-2.15332 -0.13672,-4.135742 l 5.63965,0 0.20508,5.297852 q 1.43554,-2.905274 3.89648,-4.511719 2.46094,-1.606445 5.46875,-1.606445 1.98242,0 3.69141,0.410156 l 0.0684,5.297851 q -0.71778,-0.375976 -1.74317,-0.581054 -1.02539,-0.239258 -2.1875,-0.239258 -2.05078,0 -3.75976,0.820312 -1.70899,0.786133 -2.90528,2.290039 -1.19629,1.503907 -1.87988,3.657227 -0.64941,2.15332 -0.64941,4.819336 l 0,19.414062 z"
       style="font-size:70px;letter-spacing:-1px"
       id="path4346"
       inkscape:connector-curvature="0" />
    <path
       d="m 364.48523,32.080894 10.7666,0 q 4.44336,0 8.51074,0.512696 4.06739,0.512695 7.55371,1.674804 3.52051,1.16211 6.35743,3.076172 2.87109,1.879883 4.88769,4.682618 2.0166,2.768554 3.11035,6.52832 1.09375,3.725586 1.09375,8.544922 0,5.673828 -1.91406,10.253906 -1.87988,4.545898 -5.50293,7.792969 -3.58887,3.21289 -8.81836,4.956054 -5.19531,1.743164 -11.79199,1.743164 l -14.25293,0 0,-49.765625 z m 5.87891,44.707032 8.92089,0 q 5.43457,0 9.4336,-1.435547 3.99902,-1.469727 6.63086,-4.067383 2.63183,-2.597656 3.89648,-6.186523 1.29883,-3.623047 1.29883,-7.895508 0,-5.605469 -1.57227,-9.433594 -1.57226,-3.862305 -4.68261,-6.220703 -3.07617,-2.358399 -7.69043,-3.383789 -4.58008,-1.025391 -10.62989,-1.025391 l -5.60546,0 0,39.648438 z"
       style="font-size:70px;letter-spacing:-1px"
       id="path4348"
       inkscape:connector-curvature="0" />
    <path
       d="m 430.99011,45.923668 q 4.40918,0 7.72461,1.435547 3.34961,1.435547 5.57129,3.930664 2.22168,2.495117 3.34961,5.844726 1.12793,3.34961 1.12793,7.177735 0,3.691406 -1.19629,7.041015 -1.16211,3.31543 -3.45215,5.844727 -2.25586,2.495117 -5.60547,3.964844 -3.34961,1.469726 -7.65625,1.469726 -4.375,0 -7.72461,-1.435547 -3.34961,-1.435546 -5.63964,-3.896484 -2.25586,-2.460937 -3.45215,-5.776367 -1.16211,-3.34961 -1.16211,-7.143555 0,-3.793945 1.19629,-7.143555 1.19629,-3.383789 3.48633,-5.878906 2.32421,-2.529297 5.67382,-3.964844 3.38379,-1.469726 7.75879,-1.469726 z m 11.82617,18.457031 q 0,-2.802734 -0.71777,-5.332031 -0.71777,-2.529297 -2.1875,-4.40918 -1.46973,-1.914062 -3.72559,-3.007812 -2.25585,-1.12793 -5.33203,-1.12793 -2.97363,0 -5.22949,1.162109 -2.25586,1.12793 -3.79394,3.076172 -1.50391,1.914063 -2.29004,4.44336 -0.75196,2.529297 -0.75196,5.263672 0,2.734375 0.75196,5.195312 0.78613,2.460938 2.29004,4.375 1.53808,1.879883 3.82812,3.007813 2.29004,1.09375 5.33203,1.09375 3.00781,0 5.22949,-1.12793 2.22168,-1.12793 3.69141,-3.007813 1.46973,-1.914062 2.1875,-4.375 0.71777,-2.495117 0.71777,-5.229492 z"
       style="font-size:70px;letter-spacing:-1px"
       id="path4350"
       inkscape:connector-curvature="0" />
    <path
       d="m 464.71667,64.27816 -13.02246,-17.5 6.93848,0 9.70703,14.082031 10.01465,-14.082031 6.11816,0 -12.91992,17.363281 13.36426,17.705078 -6.87012,0 -10.21972,-14.287109 -10.28809,14.287109 -6.49414,0 13.67187,-17.568359 z"
       style="font-size:70px;letter-spacing:-1px"
       id="path4352"
       inkscape:connector-curvature="0" />
  </g>
  <circle
     style="opacity:1;fill:none;fill-opacity:1;stroke:#ff03ff;stroke-width:0.32500002;stroke-miterlimit:4;stroke-dasharray:none;stroke-opacity:1;enable-background:new"
     id="path4209-9"
     cx="26.93895"
     cy="-88.513794"
     r="41.409538" />
  <g
     transform="translate(-3.9157124,10.001362)"
     style="enable-background:new"
     id="g4682">
    <circle
       r="37.413876"
       cy="-98.515137"
       cx="30.854668"
       id="path4185-2"
       style="display:inline;opacity:1;fill:#ffffff;fill-opacity:1;stroke:#000000;stroke-width:0.93661678;stroke-miterlimit:4;stroke-dasharray:none;stroke-opacity:1;enable-background:new" />
    <g
       id="g4669">
      <g
         id="g4662">
        <path
           id="path4587-6-2"
           d="m 16.176011,-77.993933 0,-9.463177"
           style="display:inline;opacity:1;fill:none;fill-opacity:1;fill-rule:evenodd;stroke:#000000;stroke-width:1.02771926;stroke-linecap:butt;stroke-linejoin:miter;stroke-miterlimit:4;stroke-dasharray:none;stroke-opacity:1;enable-background:new"
           inkscape:connector-curvature="0" />
        <ellipse
           ry="0.50778955"
           rx="0.36997628"
           cy="-87.640862"
           cx="16.176012"
           id="path4684-0-6"
           style="display:inline;opacity:1;fill:#000000;fill-opacity:1;stroke:#000000;stroke-width:1.30604839;stroke-miterlimit:4;stroke-dasharray:none;stroke-opacity:1;enable-background:new" />
        <circle
           transform="scale(-1,1)"
           r="5.0822639"
           cy="-87.640862"
           cx="-21.839399"
           id="path4585-6-5"
           style="display:inline;opacity:1;fill:none;fill-opacity:1;stroke:#000000;stroke-width:1.17453623;stroke-miterlimit:4;stroke-dasharray:none;stroke-opacity:1;enable-background:new" />
        <g
           id="text4181-3-6"
           style="font-style:normal;font-weight:normal;font-size:71.35347748px;line-height:125%;font-family:sans-serif;letter-spacing:0px;word-spacing:0px;display:inline;opacity:1;fill:#000000;fill-opacity:1;stroke:none;stroke-width:1px;stroke-linecap:butt;stroke-linejoin:miter;stroke-opacity:1;enable-background:new"
           transform="matrix(0,-0.19377166,0.11124042,0,-8.3137689,-137.68358)">
          <path
             id="path4413-0"
             style="font-style:normal;font-variant:normal;font-weight:normal;font-stretch:normal;font-size:321.09066772px;line-height:125%;font-family:'Apple Symbols';-inkscape-font-specification:'Apple Symbols, Normal';text-align:start;writing-mode:lr-tb;text-anchor:start"
             d="m -362.96046,343.28343 5.95774,0 q 10.81799,0 14.42399,-5.64417 3.76278,-5.64417 3.76278,-13.32652 0,-8.9366 -2.35173,-19.12747 l -2.66531,-11.44512 q -2.6653,-11.28835 -2.6653,-21.32243 0,-14.73756 10.34765,-23.67417 10.50443,-9.09339 25.08521,-9.09339 l 1.7246,0 0,17.40287 -2.19495,0 q -6.11452,0 -11.13156,4.86026 -4.86026,4.86026 -4.86026,14.58077 0,3.29244 0.62713,5.64418 l 1.25426,5.3306 2.35174,13.4833 q 2.6653,14.89435 2.6653,20.22495 0,8.77983 -5.48739,17.71643 -5.33061,8.77982 -17.71643,13.01295 12.38582,4.38991 17.71643,13.32652 5.48739,8.77982 5.48739,17.55965 0,5.17382 -2.6653,20.22494 l -2.35174,13.4833 -1.25426,5.33061 q -0.62713,2.6653 -0.62713,5.64417 0,9.56374 4.86026,14.424 5.01704,5.01704 11.13156,5.01704 l 2.19495,0 0,17.24608 -1.7246,0 q -14.58078,0 -25.08521,-8.93661 -10.34765,-8.9366 -10.34765,-23.83094 0,-10.03409 2.6653,-21.16565 l 2.66531,-11.44512 q 2.35173,-10.34765 2.35173,-19.28426 0,-7.52556 -3.76278,-13.16973 -3.606,-5.80096 -14.42399,-5.80096 l -5.95774,0 0,-17.24608 z"
             inkscape:connector-curvature="0" />
        </g>
      </g>
      <g
         id="g4656">
        <path
           id="path4273-4-7"
           d="m 11.390474,-104.43125 c 0,0 -1.4257796,-10.64087 -2.0218362,-16.12174 -0.7547658,-6.81961 9.9591522,-9.15765 21.3212052,-9.05359 10.996402,0.10071 22.136079,1.35739 21.321189,9.05359 -0.711693,6.07692 -2.021838,16.91592 -2.021838,16.91592 0,0 -7.50154,-4.7564 -18.65605,-4.60621 -14.523119,0.19554 -19.94267,3.81203 -19.94267,3.81203 z"
           style="display:inline;fill:#000000;fill-opacity:1;fill-rule:evenodd;stroke:#000000;stroke-width:0.1365201px;stroke-linecap:butt;stroke-linejoin:miter;stroke-opacity:1;enable-background:new"
           inkscape:connector-curvature="0" />
        <g
           id="g4652">
          <path
             style="display:inline;opacity:1;fill:#000000;fill-opacity:1;fill-rule:evenodd;stroke:#000000;stroke-width:0.14715207px;stroke-linecap:butt;stroke-linejoin:miter;stroke-opacity:1;enable-background:new"
             d="M 12.048228,-90.101651 C 4.2953428,-92.52739 1.1553529,-96.439289 1.4428491,-98.759434 c 0.3566047,-2.877866 5.6591383,-3.937246 7.023123,-3.979356 9.1999779,-0.28397 10.6409379,1.43426 22.4176199,1.43556 l 0,4.404338 c -5.383252,0.03316 -12.098668,1.223302 -14.739687,2.212262 -1.50291,0.562783 -3.791887,1.003256 -4.095677,4.584979 z"
             id="path4441-4-0-8-2"
             inkscape:connector-curvature="0" />
          <path
             style="display:inline;opacity:1;fill:#000000;fill-opacity:1;fill-rule:evenodd;stroke:#000000;stroke-width:0.14681703px;stroke-linecap:butt;stroke-linejoin:miter;stroke-opacity:1;enable-background:new"
             d="m 49.644582,-90.101471 c 7.717401,-2.425808 10.843021,-6.337818 10.556841,-8.65803 -0.354973,-2.877949 -5.633238,-3.937359 -6.99098,-3.979469 -9.157872,-0.28398 -10.592238,1.4343 -22.315018,1.4356 l 0,4.404464 c 5.358613,0.03316 12.043294,1.223337 14.672224,2.212326 1.496032,0.562799 3.774533,1.003284 4.076933,4.585109 z"
             id="path4441-4-3-7-5-4"
             inkscape:connector-curvature="0" />
        </g>
      </g>
    </g>
  </g>
  <text
     xml:space="preserve"
     style="font-style:italic;font-variant:normal;font-weight:normal;font-stretch:normal;font-size:8.01839638px;line-height:125%;font-family:Muli;-inkscape-font-specification:'Muli Italic';letter-spacing:0px;word-spacing:0px;fill:#000000;fill-opacity:1;stroke:none;stroke-width:1px;stroke-linecap:butt;stroke-linejoin:miter;stroke-opacity:1;enable-background:new"
     x="69.858627"
     y="-71.703346"
     id="text4176-5"
     sodipodi:linespacing="125%"><tspan
       sodipodi:role="line"
       id="tspan4178-1"
       x="69.858627"
       y="-71.703346"
       style="font-size:49.89224243px;letter-spacing:-0.71274632px"
       dx="0">DapperDox</tspan></text>
  <rect
     style="opacity:1;fill:none;fill-opacity:1;stroke:#ff03ff;stroke-width:0.32500002;stroke-miterlimit:4;stroke-dasharray:none;stroke-opacity:1;enable-background:new"
     id="rect4211-1"
     width="308.41812"
     height="57.409325"
     x="31.200562"
     y="-113.22279"
     rx="17.591209"
     ry="18.904539" />
</svg>
