<?xml version="1.0" encoding="UTF-8" standalone="no"?>
<svg
   xmlns:dc="http://purl.org/dc/elements/1.1/"
   xmlns:cc="http://creativecommons.org/ns#"
   xmlns:rdf="http://www.w3.org/1999/02/22-rdf-syntax-ns#"
   xmlns:svg="http://www.w3.org/2000/svg"
   xmlns="http://www.w3.org/2000/svg"
   xmlns:sodipodi="http://sodipodi.sourceforge.net/DTD/sodipodi-0.dtd"
   xmlns:inkscape="http://www.inkscape.org/namespaces/inkscape"
   style="enable-background:new"
   viewBox="0 0 160.15748 160.15748"
   height="45.200001mm"
   width="45.200001mm"
   version="1.1"
   id="svg4431"
   inkscape:version="0.91 r13725"
   sodipodi:docname="dapperdox_logo_sticker_circle.svg">
  <sodipodi:namedview
     pagecolor="#ffffff"
     bordercolor="#666666"
     borderopacity="1"
     objecttolerance="10"
     gridtolerance="10"
     guidetolerance="10"
     inkscape:pageopacity="0"
     inkscape:pageshadow="2"
     inkscape:window-width="1575"
     inkscape:window-height="884"
     id="namedview4157"
     showgrid="false"
     inkscape:document-units="mm"
     units="mm"
     inkscape:zoom="3.0966223"
     inkscape:cx="69.558043"
     inkscape:cy="67.161426"
     inkscape:window-x="0"
     inkscape:window-y="0"
     inkscape:window-maximized="0"
     inkscape:current-layer="svg4431"
     fit-margin-top="0.1"
     fit-margin-left="0.1"
     fit-margin-right="0.1"
     fit-margin-bottom="0.1" />
  <metadata
     id="metadata4437">
    <rdf:RDF>
      <cc:Work
         rdf:about="">
        <dc:format>image/svg+xml</dc:format>
        <dc:type
           rdf:resource="http://purl.org/dc/dcmitype/StillImage" />
        <dc:title></dc:title>
      </cc:Work>
    </rdf:RDF>
  </metadata>
  <defs
     id="defs4435" />
  <g
     transform="matrix(0.28084218,0,0,0.28084218,5.448922,13.124438)"
     style="display:inline;opacity:1"
     id="layer2">
    <text
       sodipodi:linespacing="125%"
       id="text4177"
       y="295.245"
       x="299.80865"
       style="font-style:normal;font-weight:normal;font-size:40px;line-height:125%;font-family:sans-serif;letter-spacing:0px;word-spacing:0px;fill:#000000;fill-opacity:1;stroke:none;stroke-width:1px;stroke-linecap:butt;stroke-linejoin:miter;stroke-opacity:1"
       xml:space="preserve"><tspan
         y="295.245"
         x="299.80865"
         id="tspan4179" /></text>
  </g>
  <g
     id="g5437"
     transform="matrix(1.3633924,0,0,1.3633924,-271.70794,-271.70793)">
    <circle
       r="52.492558"
       cy="258.02307"
       cx="258.0231"
       id="path4185"
       style="display:inline;opacity:1;fill:#ffffff;fill-opacity:1;stroke:#000000;stroke-width:1.31409562;stroke-miterlimit:4;stroke-dasharray:none;stroke-opacity:1;enable-background:new" />
    <g
       id="g5424">
      <g
         id="g5417">
        <path
           inkscape:connector-curvature="0"
           id="path4587-6"
           d="m 237.42857,286.81481 0,-13.27707"
           style="display:inline;opacity:1;fill:none;fill-opacity:1;fill-rule:evenodd;stroke:#000000;stroke-width:1.44191456;stroke-linecap:butt;stroke-linejoin:miter;stroke-miterlimit:4;stroke-dasharray:none;stroke-opacity:1;enable-background:new" />
        <ellipse
           ry="0.71244085"
           rx="0.51908553"
           cy="273.27994"
           cx="237.42857"
           id="path4684-0"
           style="display:inline;opacity:1;fill:#000000;fill-opacity:1;stroke:#000000;stroke-width:1.83241713;stroke-miterlimit:4;stroke-dasharray:none;stroke-opacity:1;enable-background:new" />
        <circle
           transform="scale(-1,1)"
           r="7.130537"
           cy="273.27994"
           cx="-245.37444"
           id="path4585-6"
           style="display:inline;opacity:1;fill:none;fill-opacity:1;stroke:#000000;stroke-width:1.64790237;stroke-miterlimit:4;stroke-dasharray:none;stroke-opacity:1;enable-background:new" />
        <g
           id="text4181-3"
           style="font-style:normal;font-weight:normal;font-size:71.35347748px;line-height:125%;font-family:sans-serif;letter-spacing:0px;word-spacing:0px;display:inline;opacity:1;fill:#000000;fill-opacity:1;stroke:none;stroke-width:1px;stroke-linecap:butt;stroke-linejoin:miter;stroke-opacity:1;enable-background:new"
           transform="matrix(0,-0.27186625,0.15607296,0,203.06883,203.06881)">
          <path
             inkscape:connector-curvature="0"
             id="path4413"
             style="font-style:normal;font-variant:normal;font-weight:normal;font-stretch:normal;font-size:321.09066772px;line-height:125%;font-family:'Apple Symbols';-inkscape-font-specification:'Apple Symbols, Normal';text-align:start;writing-mode:lr-tb;text-anchor:start"
             d="m -362.96046,343.28343 5.95774,0 q 10.81799,0 14.42399,-5.64417 3.76278,-5.64417 3.76278,-13.32652 0,-8.9366 -2.35173,-19.12747 l -2.66531,-11.44512 q -2.6653,-11.28835 -2.6653,-21.32243 0,-14.73756 10.34765,-23.67417 10.50443,-9.09339 25.08521,-9.09339 l 1.7246,0 0,17.40287 -2.19495,0 q -6.11452,0 -11.13156,4.86026 -4.86026,4.86026 -4.86026,14.58077 0,3.29244 0.62713,5.64418 l 1.25426,5.3306 2.35174,13.4833 q 2.6653,14.89435 2.6653,20.22495 0,8.77983 -5.48739,17.71643 -5.33061,8.77982 -17.71643,13.01295 12.38582,4.38991 17.71643,13.32652 5.48739,8.77982 5.48739,17.55965 0,5.17382 -2.6653,20.22494 l -2.35174,13.4833 -1.25426,5.33061 q -0.62713,2.6653 -0.62713,5.64417 0,9.56374 4.86026,14.424 5.01704,5.01704 11.13156,5.01704 l 2.19495,0 0,17.24608 -1.7246,0 q -14.58078,0 -25.08521,-8.93661 -10.34765,-8.9366 -10.34765,-23.83094 0,-10.03409 2.6653,-21.16565 l 2.66531,-11.44512 q 2.35173,-10.34765 2.35173,-19.28426 0,-7.52556 -3.76278,-13.16973 -3.606,-5.80096 -14.42399,-5.80096 l -5.95774,0 0,-17.24608 z" />
        </g>
      </g>
      <g
         id="g5411">
        <path
           inkscape:connector-curvature="0"
           id="path4273-4"
           d="m 230.71435,249.72263 c 0,0 -2.0004,-14.92941 -2.83668,-22.61919 -1.05896,-9.56808 13.97293,-12.8484 29.91416,-12.7024 15.42821,0.1413 31.05744,1.90444 29.91413,12.7024 -0.99852,8.52606 -2.83668,23.73343 -2.83668,23.73343 0,0 -10.52484,-6.67334 -26.17489,-6.46262 -20.37628,0.27434 -27.98004,5.34838 -27.98004,5.34838 z"
           style="display:inline;fill:#000000;fill-opacity:1;fill-rule:evenodd;stroke:#000000;stroke-width:0.19154094px;stroke-linecap:butt;stroke-linejoin:miter;stroke-opacity:1;enable-background:new" />
        <g
           id="g5407">
          <path
             inkscape:connector-curvature="0"
             style="display:inline;opacity:1;fill:#000000;fill-opacity:1;fill-rule:evenodd;stroke:#000000;stroke-width:0.20627099px;stroke-linecap:butt;stroke-linejoin:miter;stroke-opacity:1;enable-background:new"
             d="m 231.60997,269.82748 c -10.85768,-3.4034 -15.25513,-8.89196 -14.85251,-12.14721 0.49942,-4.03776 7.92545,-5.52412 9.83567,-5.5832 12.88429,-0.39842 14.9023,2.01232 31.39519,2.01415 l 0,6.17946 c -7.53908,0.0465 -16.94381,1.71634 -20.64248,3.1039 -2.10477,0.7896 -5.31042,1.4076 -5.73587,6.4329 z"
             id="path4441-4-0-8" />
          <path
             inkscape:connector-curvature="0"
             style="display:inline;opacity:1;fill:#000000;fill-opacity:1;fill-rule:evenodd;stroke:#000000;stroke-width:0.2059878px;stroke-linecap:butt;stroke-linejoin:miter;stroke-opacity:1;enable-background:new"
             d="m 284.38578,269.82763 c 10.82769,-3.40346 15.21301,-8.89211 14.8115,-12.14742 -0.49804,-4.03783 -7.90357,-5.52421 -9.80851,-5.58329 -12.84872,-0.39843 -14.86117,2.01235 -31.30851,2.01418 l 0,6.17957 c 7.51826,0.0465 16.89703,1.71637 20.58548,3.10395 2.09897,0.78962 5.29576,1.40763 5.72004,6.43301 z"
             id="path4441-4-3-7-5" />
        </g>
      </g>
    </g>
  </g>
  <circle
     style="opacity:1;fill:none;fill-opacity:1;stroke:#ff03ff;stroke-width:0.325;stroke-miterlimit:4;stroke-dasharray:none;stroke-opacity:1"
     id="path4179"
     cx="80.078743"
     cy="80.078743"
     r="79.502861" />
</svg>
